<svg width="481" height="512" viewBox="0 0 481 512" fill="none" xmlns="http://www.w3.org/2000/svg">
<path d="M267.376 2.99996C268.8 3.28999 268.8 3.28999 270.253 3.58589C322.702 14.3754 372.087 43.9052 404.117 87.2968C405.347 88.9603 406.598 90.6052 407.853 92.25C436.607 130.556 450.858 177.729 450.751 225.312C450.75 226.69 450.75 226.69 450.749 228.095C450.591 286.486 428.048 342.622 386.984 384.361C385.487 385.887 384.013 387.432 382.544 388.984C370.348 401.626 355.929 411.298 341.376 421C343.287 421.002 343.287 421.002 345.237 421.004C357.285 421.021 369.334 421.064 381.382 421.132C387.575 421.166 393.768 421.191 399.962 421.196C405.947 421.2 411.931 421.228 417.916 421.273C420.191 421.286 422.466 421.291 424.741 421.286C442.645 421.258 455.542 422.802 469.048 435.582C478.989 446.112 480.946 458.064 480.716 471.859C480.171 484.197 473.976 493.891 465.188 502.187C458.224 507.854 449.575 512.13 440.529 512.12C439.556 512.122 438.583 512.123 437.58 512.124C436.519 512.121 435.458 512.117 434.365 512.113C433.243 512.114 432.121 512.114 430.964 512.114C427.253 512.113 423.541 512.105 419.829 512.098C417.256 512.096 414.684 512.094 412.111 512.093C406.03 512.09 399.95 512.082 393.869 512.072C386.945 512.061 380.021 512.055 373.098 512.05C358.857 512.04 344.616 512.021 330.376 512C330.376 502.1 330.376 492.2 330.376 482C333.52 481.98 336.664 481.96 339.904 481.94C350.297 481.873 360.691 481.795 371.084 481.712C377.385 481.663 383.686 481.616 389.987 481.578C396.069 481.541 402.151 481.495 408.233 481.442C410.552 481.423 412.871 481.408 415.19 481.397C418.441 481.38 421.692 481.351 424.943 481.319C425.899 481.317 426.856 481.315 427.842 481.312C434.487 481.229 440.042 481.03 445.251 476.5C448.711 472.43 448.658 469.681 448.591 464.477C448.309 461.229 447.527 459.448 445.376 457C439.409 452.603 433.253 452.853 426.146 452.862C424.747 452.858 424.747 452.858 423.32 452.853C420.192 452.845 417.064 452.844 413.936 452.842C411.694 452.838 409.451 452.832 407.209 452.827C402.376 452.816 397.542 452.807 392.709 452.801C385.049 452.79 377.39 452.77 369.73 452.748C358.973 452.717 348.216 452.688 337.458 452.662C336.776 452.66 336.093 452.659 335.39 452.657C324.37 452.631 313.349 452.612 302.328 452.595C290.984 452.578 279.639 452.549 268.295 452.511C261.938 452.49 255.581 452.474 249.224 452.472C243.229 452.47 237.234 452.454 231.238 452.427C229.054 452.42 226.87 452.418 224.686 452.422C207.131 452.445 189.897 451.008 172.813 446.75C171.962 446.542 171.11 446.333 170.233 446.119C144.467 439.58 119.023 428.492 97.3759 413C95.9354 411.971 95.9354 411.971 94.4658 410.922C76.5089 397.768 59.8841 382.652 46.6347 364.703C45.4052 363.04 44.1538 361.395 42.8994 359.75C23.9106 334.454 11.4822 305.058 4.62594 274.312C4.42702 273.423 4.2281 272.534 4.02316 271.617C0.85674 256.642 -0.0332279 241.944 0.000939037 226.687C0.00148286 225.769 0.00202669 224.851 0.00258699 223.905C0.134587 175.217 15.4473 127.684 45.3759 89C45.9973 88.1866 46.6186 87.3732 47.2588 86.5351C81.5337 42.616 129.158 14.3323 183.376 2.99996C184.196 2.81916 185.016 2.63837 185.861 2.4521C211.249 -2.96941 242.058 -2.54142 267.376 2.99996ZM241.376 31C241.326 35.4799 241.29 39.9597 241.266 44.4399C241.256 45.9585 241.243 47.477 241.225 48.9956C241.122 58.2162 241.43 66.9312 243.376 76C248.013 74.5889 252.213 72.6627 256.501 70.4375C272.709 62.209 289.319 55.2658 306.376 49C289.901 35.7571 261.812 32.7843 241.376 31ZM196.438 32.375C195.544 32.5013 194.651 32.6276 193.729 32.7578C192.861 32.8867 191.993 33.0156 191.099 33.1484C190.312 33.2636 189.526 33.3788 188.716 33.4975C186.119 34.0551 183.813 34.9535 181.376 36C180.691 62.2544 182.928 86.6657 190.376 112C194.535 110.594 197.309 108.602 200.626 105.75C205.343 101.788 210.187 98.3069 215.376 95C214.929 90.6268 214.471 86.2974 213.657 81.9765C210.571 65.1309 210.637 48.0737 210.376 31C205.622 31 201.132 31.6742 196.438 32.375ZM138.688 50.6875C137.802 51.1225 136.916 51.5576 136.003 52.0058C133.432 53.2903 130.898 54.6228 128.376 56C127.651 56.3914 126.926 56.7829 126.179 57.1862C123.971 58.4507 123.971 58.4507 121.376 61C120.817 63.9397 120.768 65.5657 121.126 68.4375C121.232 69.583 121.232 69.583 121.34 70.7517C121.627 73.5112 121.994 76.252 122.376 79C122.526 80.1127 122.677 81.2255 122.832 82.372C126.518 108.691 133.448 133.399 143.376 158C147.653 156.397 150.238 153.138 153.188 149.812C157.451 145.063 161.825 140.475 166.376 136C166.16 135.343 165.944 134.687 165.721 134.01C160.448 117.84 156.195 101.778 153.376 85C153.25 84.251 153.124 83.5021 152.994 82.7304C151.037 70.5827 150.773 58.2771 150.376 46C146.253 46 142.31 48.8703 138.688 50.6875ZM330.813 73.5C329.88 73.7777 328.947 74.0554 327.985 74.3415C325.109 75.2092 322.242 76.1 319.376 77C318.561 77.2528 317.747 77.5056 316.908 77.7661C278.002 90.0311 241.504 110.728 210.376 137C209.368 137.822 208.36 138.645 207.321 139.492C199.683 145.792 192.584 152.583 185.563 159.562C184.692 160.425 183.821 161.287 182.923 162.175C176.985 168.142 171.621 174.421 166.376 181C165.375 182.208 164.372 183.414 163.364 184.617C125.925 229.915 102.787 285.911 93.8925 343.716C93.5557 345.857 93.1967 347.995 92.8125 350.128C90.5308 360.728 90.5308 360.728 92.9267 370.867C95.5658 373.36 98.2821 375.097 101.376 377C102.764 378.036 104.139 379.087 105.505 380.152C108.296 382.325 111.093 384.486 113.935 386.594C114.525 387.034 115.116 387.474 115.725 387.928C117.507 389.183 117.507 389.183 120.376 390C120.391 389.399 120.405 388.797 120.42 388.178C122.135 324.051 141.512 262.442 180.376 211C180.806 210.427 181.236 209.855 181.679 209.265C187.623 201.389 193.955 194.017 200.724 186.84C202.771 184.647 204.723 182.44 206.626 180.125C209.203 177.07 212.082 174.52 215.126 171.937C217.666 169.75 220.109 167.471 222.563 165.187C228.555 159.738 234.868 154.807 241.376 150C241.991 149.539 242.607 149.077 243.241 148.602C280.884 120.503 323.884 104.992 369.376 95C357.913 80.9317 357.913 80.9317 343.138 71.0859C338.79 70.9506 334.949 72.2447 330.813 73.5ZM86.8759 88.3125C82.413 92.8201 78.2886 97.4896 74.3681 102.484C72.3759 105 72.3759 105 70.6338 106.828C68.5534 109.145 67.398 111.182 67.3134 114.32C67.7665 117.634 68.5316 120.762 69.3759 124C69.5716 124.778 69.7672 125.556 69.9687 126.358C77.4981 156.17 87.4563 188.059 104.376 214C105.036 214.33 105.696 214.66 106.376 215C106.944 213.961 107.513 212.922 108.099 211.852C108.877 210.442 109.657 209.033 110.438 207.625C110.842 206.895 111.246 206.165 111.663 205.413C114.499 200.361 117.6 195.716 121.259 191.211C122.819 188.123 122.116 186.342 121.376 183C120.696 181.166 119.952 179.356 119.153 177.57C118.701 176.54 118.249 175.51 117.783 174.449C117.298 173.352 116.813 172.255 116.313 171.125C104.179 142.974 96.9328 114.266 92.3759 84C90.2562 84 88.234 86.9649 86.8759 88.3125ZM383.544 123.469C382.592 123.624 381.641 123.78 380.66 123.941C379.638 124.125 378.616 124.31 377.563 124.5C376.499 124.686 375.435 124.873 374.338 125.065C325.037 134.045 278.589 155.931 241.61 189.949C239.524 191.864 237.399 193.718 235.251 195.562C228.411 201.535 222.21 208.049 216.376 215C215.91 215.552 215.445 216.104 214.965 216.672C207.088 226.046 199.882 235.627 193.376 246C192.99 246.612 192.603 247.224 192.205 247.854C186.297 257.269 181.135 266.96 176.376 277C176.047 277.684 175.719 278.367 175.38 279.072C166.144 298.424 159.476 318.957 155.376 340C155.18 340.993 154.984 341.986 154.782 343.009C150.749 364.315 150.939 385.412 151.376 407C154.308 408.141 157.247 409.26 160.188 410.375C161.002 410.692 161.817 411.009 162.655 411.336C168.812 413.654 174.877 415.016 181.376 416C181.345 414.076 181.345 414.076 181.312 412.114C180.589 363.525 180.589 363.525 185.376 342C185.59 341.018 185.805 340.036 186.025 339.025C195.239 298.073 214.465 261.217 242.376 230C242.895 229.418 243.414 228.835 243.949 228.235C249.758 221.749 255.618 215.514 262.376 210C263.526 209.027 264.676 208.053 265.825 207.078C275.19 199.216 284.898 192.299 295.376 186C296.079 185.576 296.782 185.152 297.507 184.716C330.412 165.132 366.512 155.249 404.376 151C402.463 144.674 400.038 138.894 396.938 133.062C396.365 131.932 396.365 131.932 395.78 130.779C395.401 130.059 395.021 129.339 394.63 128.598C394.293 127.953 393.956 127.309 393.609 126.645C390.83 122.937 387.884 122.744 383.544 123.469ZM44.3759 154C37.3611 173.717 31.2968 193.51 31.1728 214.609C31.1658 215.41 31.1588 216.21 31.1516 217.035C31.1341 219.607 31.1277 222.178 31.1259 224.75C31.1253 225.628 31.1246 226.506 31.1239 227.41C31.1395 240.185 31.5428 252.496 34.3759 265C34.5422 265.792 34.7085 266.584 34.8798 267.4C40.021 291.678 49.9661 314.162 63.3759 335C65.1655 331.819 65.9119 328.901 66.5673 325.32C66.785 324.179 67.0026 323.038 67.2268 321.862C67.4616 320.629 67.6965 319.395 67.9384 318.125C70.0651 307.468 72.5756 297.045 75.6884 286.625C76.2434 284.756 76.2434 284.756 76.8095 282.85C78.9811 275.797 81.5688 269.15 84.6262 262.439C88.5611 254.17 88.5611 254.17 88.6142 245.316C86.8858 242.298 85.0332 239.725 82.8691 237.021C79.8273 232.903 77.5356 228.319 75.1259 223.812C74.5717 222.788 74.0175 221.763 73.4465 220.708C63.6995 202.488 55.8735 183.655 49.4963 164.027C48.9224 162.277 48.9224 162.277 48.3369 160.492C48.0048 159.454 47.6727 158.416 47.3305 157.347C46.6133 154.844 46.6133 154.844 44.3759 154ZM341.376 197C362.037 210.774 395.333 212.806 419.376 210C417.938 195.915 417.938 195.915 415.376 182C390.291 180.532 364.27 187.042 341.376 197ZM306.376 215C298.174 220.767 290.116 226.616 282.376 233C312.499 258.276 356.995 268.823 395.376 270.625C396.309 270.677 397.243 270.728 398.204 270.781C404.066 271.06 409.56 270.798 415.376 270C415.865 267.606 416.342 265.21 416.813 262.812C417.016 261.831 417.016 261.831 417.222 260.83C418.497 254.265 418.945 247.667 419.376 241C418.472 240.991 417.567 240.981 416.636 240.972C382.908 240.536 352.322 236.112 321.376 222C320.624 221.657 319.871 221.314 319.096 220.96C314.839 219.009 310.601 217.021 306.376 215ZM259.376 257C252.959 263.429 248.037 271.252 243.376 279C246.86 282.9 250.878 285.39 255.313 288.062C256.105 288.54 256.896 289.018 257.712 289.509C296.703 312.754 344.289 330.891 390.376 330C391.966 327.191 393.547 324.377 395.126 321.562C395.569 320.779 396.013 319.996 396.47 319.189C401.887 310.552 401.887 310.552 404.376 301C403.825 300.985 403.273 300.971 402.706 300.956C355.199 299.57 304.326 288.048 265.528 259.176C262.603 256.716 262.603 256.716 259.376 257ZM228.376 308C225.363 313.712 223.088 319.354 221.126 325.5C220.858 326.322 220.59 327.145 220.313 327.992C219.662 329.993 219.018 331.996 218.376 334C222.961 339.36 228.75 342.326 234.876 345.687C236.551 346.612 236.551 346.612 238.259 347.556C264.079 361.678 290.912 372.467 319.376 380C320.237 380.23 321.099 380.46 321.986 380.696C324.341 381.316 326.7 381.914 329.063 382.5C329.74 382.673 330.417 382.845 331.114 383.023C334.864 383.903 337.717 384.296 341.376 383C347.655 378.734 353.252 373.284 358.876 368.187C359.38 367.732 359.884 367.276 360.404 366.807C363.049 364.372 365.266 361.901 367.376 359C366.655 358.89 365.933 358.781 365.19 358.668C319.583 351.606 269.298 338.326 232.262 309.346C230.491 307.806 230.491 307.806 228.376 308ZM212.376 368C211.046 371.99 211.233 375.821 211.243 379.98C211.242 380.867 211.241 381.754 211.24 382.668C211.24 384.546 211.241 386.425 211.246 388.304C211.251 391.159 211.246 394.014 211.239 396.869C211.24 398.698 211.241 400.527 211.243 402.355C211.241 403.202 211.239 404.048 211.237 404.919C210.763 413.522 210.763 413.523 213.376 421C241.786 425.393 273.253 417.884 299.376 407C296.415 405.026 294.054 404.127 290.688 403.039C263.304 394.004 237.369 382.435 212.376 368Z" fill="#6CBA30"/>
</svg>
